<?xml version="1.0" standalone="no"?><!DOCTYPE svg PUBLIC "-//W3C//DTD SVG 1.1//EN" "http://www.w3.org/Graphics/SVG/1.1/DTD/svg11.dtd"><svg t="1569725114398" class="icon" viewBox="0 0 1026 1024" version="1.1" xmlns="http://www.w3.org/2000/svg" p-id="12857" width="16.03125" height="16" xmlns:xlink="http://www.w3.org/1999/xlink"><defs><style type="text/css"></style></defs><path d="M982.455622 347.053417 812.719732 516.77819c-37.49181 37.508991-98.288412 37.508991-135.796393 0L507.18846 347.053417c-37.497874-37.508991-37.497874-98.315699 0-135.774159L676.923339 41.510017c37.508991-37.50697 98.304582-37.50697 135.802456 0l169.729826 169.76924C1019.964613 248.737718 1019.952485 309.545436 982.455622 347.053417L982.455622 347.053417zM931.54587 228.250522 795.754531 92.425832c-28.132501-28.08197-73.726415-28.08197-101.8478 0l-135.796393 135.82469c-28.121384 28.083992-28.121384 73.698118 0 101.83163l135.796393 135.774159c28.121384 28.132501 73.715299 28.132501 101.8478 0l135.785276-135.774159C959.661191 301.949651 959.661191 256.384034 931.54587 228.250522L931.54587 228.250522zM336.740086 1023.318845 96.694672 1023.318845c-53.024969 0-96.019581-42.995622-96.019581-96.019581L0.675091 687.249808c0-53.024969 42.995622-96.019581 96.019581-96.019581L336.740086 591.230227c53.030022 0 96.025644 42.995622 96.025644 96.019581L432.765731 927.299265C432.765731 980.324234 389.770109 1023.318845 336.740086 1023.318845L336.740086 1023.318845zM336.740086 495.208625 96.694672 495.208625c-53.024969 0-96.019581-42.995622-96.019581-96.019581L0.675091 159.14464c0-53.030022 42.995622-96.019581 96.019581-96.019581L336.740086 63.12506c53.030022 0 96.025644 42.989558 96.025644 96.019581l0 240.043393C432.765731 452.213003 389.770109 495.208625 336.740086 495.208625L336.740086 495.208625zM624.799839 591.230227l240.050468 0c53.024969 0 96.019581 42.995622 96.019581 96.019581L960.869887 927.299265c0 53.024969-42.995622 96.014528-96.019581 96.014528L624.799839 1023.313792c-53.024969 0-96.014528-42.989558-96.014528-96.014528L528.785311 687.249808C528.780258 634.224838 571.77487 591.230227 624.799839 591.230227L624.799839 591.230227zM624.799839 591.230227" p-id="12858" fill="#dbdbdb"></path></svg>