<?xml version="1.0" standalone="no"?><!DOCTYPE svg PUBLIC "-//W3C//DTD SVG 1.1//EN" "http://www.w3.org/Graphics/SVG/1.1/DTD/svg11.dtd"><svg t="1570694133498" class="icon" viewBox="0 0 1024 1024" version="1.1" xmlns="http://www.w3.org/2000/svg" p-id="3767" xmlns:xlink="http://www.w3.org/1999/xlink" width="16" height="16"><defs><style type="text/css"></style></defs><path d="M557.3 512l203-203c12.5-12.5 12.5-32.8 0-45.3l0 0c-12.5-12.5-32.8-12.5-45.3 0l-203 203-203-203c-12.5-12.5-32.8-12.5-45.3 0l0 0c-12.5 12.5-12.5 32.8 0 45.3l203 203-203 203c-12.5 12.5-12.5 32.8 0 45.3l0 0c12.5 12.5 32.8 12.5 45.3 0l203-203 203 203c12.5 12.5 32.8 12.5 45.3 0l0 0c12.5-12.5 12.5-32.8 0-45.3L557.3 512z" p-id="3768" fill="#ffffff"></path></svg>