<?xml version="1.0" standalone="no"?><!DOCTYPE svg PUBLIC "-//W3C//DTD SVG 1.1//EN" "http://www.w3.org/Graphics/SVG/1.1/DTD/svg11.dtd"><svg t="1564595498401" class="icon" viewBox="0 0 1024 1024" version="1.1" xmlns="http://www.w3.org/2000/svg" p-id="2268" xmlns:xlink="http://www.w3.org/1999/xlink" width="200" height="200"><defs><style type="text/css"></style></defs><path d="M298.24 373.44m-248.85333333 0a248.85333333 248.85333333 0 1 0 497.70666666 0 248.85333333 248.85333333 0 1 0-497.70666666 0Z" fill="#FFF0C2" p-id="2269"></path><path d="M298.24 373.44m-156.90666667 0a156.90666667 156.90666667 0 1 0 313.81333334 0 156.90666667 156.90666667 0 1 0-313.81333334 0Z" fill="#FFDC0B" p-id="2270"></path><path d="M669.33333333 304.85333333c-118.61333333-0.64-222.4 62.82666667-278.72 157.86666667-30.93333333-13.86666667-65.17333333-21.65333333-101.22666666-21.97333333-141.01333333-1.28-255.36 111.36-256 252.37333333-0.10666667 13.54666667 0.96 26.88 2.88 39.89333333 0.21333333 1.38666667 0.42666667 2.88 0.64 4.26666667 16 93.97333333 98.45333333 162.24 193.81333333 162.24H735.46666667c104.21333333 0 198.18666667-64.32 234.02666666-162.13333333 0.53333333-1.38666667 1.06666667-2.88 1.6-4.37333334 11.73333333-33.38666667 18.13333333-69.22666667 18.13333334-106.56 0-177.17333333-142.50666667-320.64-319.89333334-321.6z" fill="#72AEFD" p-id="2271"></path></svg>