<?xml version="1.0" standalone="no"?><!DOCTYPE svg PUBLIC "-//W3C//DTD SVG 1.1//EN" "http://www.w3.org/Graphics/SVG/1.1/DTD/svg11.dtd"><svg t="1559106204817" class="icon" style="" viewBox="0 0 1024 1024" version="1.1" xmlns="http://www.w3.org/2000/svg" p-id="7553" xmlns:xlink="http://www.w3.org/1999/xlink" width="128" height="128"><defs><style type="text/css"></style></defs><path d="M650.24 670.72m-281.6 0a281.6 281.6 0 1 0 563.2 0 281.6 281.6 0 1 0-563.2 0Z" fill="#FED847" p-id="7554"></path><path d="M820.31616 788.2752c-0.6144-0.37888-67.88096-38.33856-122.0608-67.46112-37.98016-20.48-134.7584 5.39648-208.5888 38.17472-40.8576 18.08384-102.1952 9.15456-128.6144-18.81088a50.176 50.176 0 0 1-7.68-60.74368c13.7216-26.23488 45.7728-44.51328 79.7696-63.87712 30.6176-17.408 68.7104-39.14752 66.7648-57.26208a183.808 183.808 0 0 0-16.9984-51.70176c-13.42464-30.464-33.6896-76.50304 15.36-98.23232 24.8832-11.07968 62.2592-2.048 98.39616 6.57408 15.96416 4.33152 32.21504 7.44448 48.64 9.29792a91.51488 91.51488 0 0 0-5.632-12.57472c-23.552-44.17536-43.9296-48.65024-67.4816-53.82144-19.6608-4.31104-44.1344-9.65632-63.6928-38.27712-27.5456-40.25344-41.984-96.70656-51.5072-134.07232-3.3792-13.13792-6.2464-24.48384-8.6016-30.59712-9.8304-25.89696-29.2864-75.53024-29.2864-75.53024l38.4-14.83776s19.5584 49.84832 29.3888 75.85792c3.95264 11.48928 7.30112 23.17312 10.0352 35.01056 8.9088 34.58048 22.2208 86.8352 45.6704 121.1392 10.3424 15.14496 20.87936 17.4592 38.4 21.2992 26.4192 5.79584 62.65856 13.7216 95.01696 74.68032 5.64224 10.56768 20.5824 38.656 4.9152 58.73664-17.2032 21.9136-50.9952 13.80352-93.9008 3.52256-25.30304-6.07232-59.904-14.336-71.9872-8.99072-8.4992 3.75808-11.6736 5.1712 5.5296 44.42112a216.53504 216.53504 0 0 1 20.2752 63.76448c4.8128 44.70784-41.99424 71.38304-87.25504 97.14688-26.0096 14.848-55.6032 31.66208-63.6928 47.2064a9.9328 9.9328 0 0 0 1.1264 13.75232c13.312 14.11072 55.3984 21.22752 81.8176 9.51296 28.672-12.73856 175.3088-74.35264 245.0432-36.79232 54.4768 29.30688 122.0608 67.49184 122.7776 67.87072l-20.34688 35.61472zM508.416 911.36a437.02272 437.02272 0 0 1-128-19.29216C162.64192 826.08128 34.05824 601.77408 87.1424 380.49792l40.0384 9.5744c-49.24416 210.35008 81.36704 420.79232 291.71712 470.02624A391.15776 391.15776 0 0 0 690.8928 825.0368a394.19904 394.19904 0 0 0 62.47424-40.82688l25.8048 31.9488A436.2752 436.2752 0 0 1 508.416 911.36z m357.376-188.50816l-34.08896-23.00928a386.94912 386.94912 0 0 0 22.2208-400.85504c-102.2976-191.17056-340.18304-263.2192-531.3536-160.93184A392.64256 392.64256 0 0 0 172.6464 279.73632l-35.2256-21.1456C260.02432 53.90336 525.3632-12.6464 730.0608 109.95712s271.23712 387.93216 148.64384 592.64c-4.12672 6.8608-8.42752 13.60896-12.91264 20.25472z m-496.9472-269.312c-18.1248 0-34.816-13.68064-52.1216-27.98592-18.7392-15.36-39.8336-32.68608-64.7168-37.38624a686.52032 686.52032 0 0 1-122.4704-35.38944 239.08352 239.08352 0 0 0-35.5328-11.65312l7.68-40.27392c14.51008 3.35872 28.7232 7.90528 42.496 13.58848a645.60128 645.60128 0 0 0 115.6096 33.47456c35.2256 6.68672 61.7472 28.50816 83.1488 46.08a152.27904 152.27904 0 0 0 24.576 17.99168c3.2768-4.096 11.1616-19.10784 19.2512-71.9872 5.7344-37.376-13.9264-48.98816-63.6928-68.39296a387.00032 387.00032 0 0 1-36.2496-15.63648c-22.4256-11.5712-24.4736-27.15648-23.6544-35.42016 2.7648-28.672 48.2304-47.81056 85.8112-58.80832l11.6736 39.31136a230.18496 230.18496 0 0 0-50.176 20.87936c8.4992 4.096 17.8176 7.70048 27.648 11.53024 42.496 16.57856 100.6592 39.28064 89.3952 112.71168-10.4448 67.84-22.8352 96.256-45.6704 104.93952a36.18816 36.18816 0 0 1-13.0048 2.44736v-0.02048z" fill="" p-id="7555"></path></svg>