<?xml version="1.0" standalone="no"?><!DOCTYPE svg PUBLIC "-//W3C//DTD SVG 1.1//EN" "http://www.w3.org/Graphics/SVG/1.1/DTD/svg11.dtd"><svg t="1569809779399" class="icon" viewBox="0 0 1024 1024" version="1.1" xmlns="http://www.w3.org/2000/svg" p-id="5354" xmlns:xlink="http://www.w3.org/1999/xlink" width="32" height="32"><defs><style type="text/css"></style></defs><path d="M512 0.00407c-239.102984-1.024-434.17397 191.999987-435.19797 431.61397 0 117.247992 48.127997 229.374984 133.119991 310.270979l250.365983 241.662984c31.743998 45.567997 80.383995 56.831996 108.031992 8.191999l273.918981-279.549981c20.479999-24.064998 38.911997-50.176997 53.759997-77.823994 33.790998-62.975996 51.199997-132.607991 51.199996-203.775986C945.66097 191.491057 751.101984-1.01993 512 0.00407z m0 740.349949c-172.542988-1.537-311.294979-142.84799-309.758979-315.391978 1.536-172.542988 142.84799-311.293979 315.390979-309.757979 172.030988 1.536 310.269979 141.82299 309.758978 313.853979-0.512 173.055988-141.31199 312.830979-314.366978 312.830978h-0.512l-0.512-1.536z" p-id="5355" fill="#FEC72F"></path><path d="M650.750991 406.530042h-93.694994c-9.727999 1.024-18.431999-6.656-19.455999-16.382999v-158.719989c0.512-20.991999-15.871999-38.399997-36.351997-38.911997-2.048 0-4.096 0-6.144 0.512-18.431999 4.608-31.743998 21.503999-32.255998 40.959997v211.454986c1.024 20.991999 17.407999 37.887997 38.399998 40.447997h152.062989c22.015998-0.512 38.911997-18.431999 38.911998-40.447997 0-2.048 0-3.584-0.512-5.632-5.12-19.455999-21.503999-32.767998-40.959997-33.279998z" p-id="5356" fill="#FEC72F"></path></svg>