<?xml version="1.0" standalone="no"?><!DOCTYPE svg PUBLIC "-//W3C//DTD SVG 1.1//EN" "http://www.w3.org/Graphics/SVG/1.1/DTD/svg11.dtd"><svg t="1564642132088" class="icon" viewBox="0 0 1024 1024" version="1.1" xmlns="http://www.w3.org/2000/svg" p-id="2040" xmlns:xlink="http://www.w3.org/1999/xlink" width="81" height="81"><defs><style type="text/css"></style></defs><path d="M965.40416 342.76608c-19.50976-52.24704-47.744-100.41472-83.92064-143.16288-18.26688-21.5872-50.57536-24.27392-72.15872-6.0096-21.58464 18.26688-24.2752 50.5728-6.00832 72.15872C861.4336 334.42816 893.44 421.88032 893.44 512c0 210.32576-171.11424 381.44-381.44 381.44-210.32704 0-381.44-171.11424-381.44-381.44 0-210.32704 171.11296-381.44 381.44-381.44 60.48896 0 118.30784 13.72672 171.85152 40.8 25.2288 12.75648 56.03328 2.64704 68.7936-22.58816 12.76032-25.23392 2.64576-56.03456-22.58816-68.7936C662.05312 45.5936 588.68992 28.16 512 28.16c-65.29536 0-128.66432 12.8-188.34688 38.04416-57.62176 24.37248-109.36064 59.2512-153.7792 103.66976-44.41856 44.41856-79.29856 96.15744-103.66976 153.77792C40.96 383.3344 28.16 446.70464 28.16 512c0 65.29536 12.8 128.6656 38.04416 188.34688 24.37248 57.62176 59.2512 109.36064 103.66976 153.7792s96.15744 79.29856 153.7792 103.66976C383.33568 983.04 446.70464 995.84 512 995.84c65.29536 0 128.6656-12.8 188.34816-38.04416 57.62176-24.3712 109.36064-59.2512 153.77792-103.66976 44.41856-44.41856 79.29856-96.15744 103.66976-153.7792C983.04 640.6656 995.84 577.29536 995.84 512 995.84 453.79328 985.6 396.85504 965.40416 342.76608z" p-id="2041"></path><path d="M512.05376 228.04992c-58.72896 0-113.90976 22.0544-155.38176 62.09664-40.83456 39.42784-64.7616 92.57472-67.35616 149.63968-2.23488 49.03808 18.36928 108.03328 61.23136 175.35232 39.2384 61.6192 84.69888 110.79552 97.696 124.40064 19.70432 20.61824 33.95328 33.792 44.36224 43.41376l14.04928 12.99712 36.34944-34.54208c0.75648-0.71296 7.6096-7.17824 18.26048-17.79584 19.31136-17.17376 41.9328-41.48864 63.7696-68.54912 25.85344-30.14144 46.52928-57.83424 61.44512-82.31296 28.3584-46.5408 40.06656-89.53088 44.8896-117.4528 1.51936-8.02816 2.53824-16.0128 3.0272-23.72224 0.39424-5.21344 0.44032-8.52352 0.44416-9.37984 0.43136-55.12832-21.21984-107.54688-60.96512-147.60448C631.9168 252.30592 572.93312 228.04992 512.05376 228.04992zM512.00128 512.18048c-48.10112 0-87.23072-39.13088-87.23072-87.22816 0-48.09728 39.1296-87.22816 87.23072-87.22816 48.09856 0 87.22816 39.13088 87.22816 87.22816C599.22944 473.0496 560.09984 512.18048 512.00128 512.18048z" p-id="2042"></path></svg>