<?xml version="1.0" standalone="no"?><!DOCTYPE svg PUBLIC "-//W3C//DTD SVG 1.1//EN" "http://www.w3.org/Graphics/SVG/1.1/DTD/svg11.dtd"><svg t="1559399647888" class="icon" style="" viewBox="0 0 1024 1024" version="1.1" xmlns="http://www.w3.org/2000/svg" p-id="2286" xmlns:xlink="http://www.w3.org/1999/xlink" width="200" height="200"><defs><style type="text/css"></style></defs><path d="M473.75872 668.16V242.56c0-67.51232-54.7072-122.24-122.17856-122.24-67.47648 0-122.18368 54.72768-122.18368 122.24v680.00256c0 40.448-52.39808 56.41728-74.9568 22.84032L44.78976 782.20288a40.96 40.96 0 0 1 67.99872-45.68576l34.688 51.63008V242.56C147.47648 129.80736 238.85312 38.4 351.58016 38.4c112.72192 0 204.09856 91.40736 204.09856 204.16v544c0 67.51232 54.7072 122.24 122.17856 122.24 67.4816 0 122.18368-54.72768 122.18368-122.24V106.55744c0-40.60672 52.736-56.46336 75.13088-22.5792l107.85792 163.2a40.96 40.96 0 1 1-68.34176 45.16352l-32.72704-49.51552v543.73376c0 112.75264-91.37664 204.16-204.10368 204.16-112.72192 0-204.09856-91.40736-204.09856-204.16V668.16z" fill="#ffffff" p-id="2287"></path></svg>