<?xml version="1.0" standalone="no"?><!DOCTYPE svg PUBLIC "-//W3C//DTD SVG 1.1//EN" "http://www.w3.org/Graphics/SVG/1.1/DTD/svg11.dtd"><svg t="1569809750500" class="icon" viewBox="0 0 1024 1024" version="1.1" xmlns="http://www.w3.org/2000/svg" p-id="4466" width="32" height="32" xmlns:xlink="http://www.w3.org/1999/xlink"><defs><style type="text/css"></style></defs><path d="M109.714286 292.571429a109.714286 109.714286 0 1 1 0-219.428572 109.714286 109.714286 0 0 1 0 219.428572z m804.571428 731.428571a109.714286 109.714286 0 1 1 0-219.428571 109.714286 109.714286 0 0 1 0 219.428571z m-585.142857-804.571429a36.571429 36.571429 0 0 1 0-73.142857H804.571429a219.428571 219.428571 0 0 1 0 438.857143H219.428571a146.285714 146.285714 0 1 0 0 292.571429h475.428572a36.571429 36.571429 0 1 1 0 73.142857H219.428571a219.428571 219.428571 0 0 1 0-438.857143h585.142858a146.285714 146.285714 0 1 0 0-292.571429H329.142857z" p-id="4467" fill="#FEC72F"></path></svg>