<?xml version="1.0" standalone="no"?><!DOCTYPE svg PUBLIC "-//W3C//DTD SVG 1.1//EN" "http://www.w3.org/Graphics/SVG/1.1/DTD/svg11.dtd"><svg t="1569773534926" class="icon" viewBox="0 0 1024 1024" version="1.1" xmlns="http://www.w3.org/2000/svg" p-id="5350" width="32" height="32" xmlns:xlink="http://www.w3.org/1999/xlink"><defs><style type="text/css"></style></defs><path d="M159.817143 1012.48a36.571429 36.571429 0 0 1-25.965714-10.605714L12.434286 880.274286a36.571429 36.571429 0 0 1 51.748571-51.748572l95.634286 95.634286L256 828.525714a36.571429 36.571429 0 1 1 51.748571 51.748572l-121.6 121.6a36.571429 36.571429 0 0 1-26.331428 10.605714zM985.782857 206.08a36.571429 36.571429 0 0 1-25.965714-10.605714l-95.634286-95.634286L768 195.474286a36.571429 36.571429 0 0 1-51.2-51.748572l121.6-121.6a36.571429 36.571429 0 0 1 51.748571 0l121.417143 121.6a36.571429 36.571429 0 0 1 0 51.748572 36.571429 36.571429 0 0 1-25.782857 10.605714z" p-id="5351" fill="#ffffff"></path><path d="M690.102857 994.56a212.845714 212.845714 0 0 1-212.662857-212.48V257.645714a140.068571 140.068571 0 0 0-280.137143 0v700.342857a36.571429 36.571429 0 0 1-73.142857 0v-700.342857a213.211429 213.211429 0 0 1 426.422857 0v524.434286a139.52 139.52 0 0 0 278.857143 0V81.737143a36.571429 36.571429 0 0 1 73.142857 0v700.342857a212.845714 212.845714 0 0 1-212.48 212.48z" p-id="5352" fill="#ffffff"></path></svg>