<?xml version="1.0" standalone="no"?><!DOCTYPE svg PUBLIC "-//W3C//DTD SVG 1.1//EN" "http://www.w3.org/Graphics/SVG/1.1/DTD/svg11.dtd"><svg t="1569809834489" class="icon" viewBox="0 0 1024 1024" version="1.1" xmlns="http://www.w3.org/2000/svg" p-id="6144" xmlns:xlink="http://www.w3.org/1999/xlink" width="32" height="32"><defs><style type="text/css"></style></defs><path d="M849.395 191.551c-37.496-37.496-87.523-58.194-140.893-58.194s-103.397 20.697-140.894 58.194l-44.643 44.645-233.335 233.24 281.784 281.786 277.887-277.887c37.496-37.496 58.194-87.521 58.194-140.89 0.002-53.277-20.601-103.396-58.1-140.894zM240.72 518.447l-41.304 41.206c-15.591 15.592-25.897 35.179-30.07 56.8l-50.027 264.522c-2.135 11.23 1.486 22.833 9.557 30.909 6.592 6.588 15.41 10.118 24.505 10.118a37.301 37.301 0 0 0 6.403-0.557l264.52-50.027c21.628-4.084 41.305-14.48 56.804-30.077l41.21-41.208L240.72 518.447z m0 0" fill="#FEC72F" p-id="6145"></path></svg>